<svg width="305" height="112" viewBox="0 0 305 112" fill="none" xmlns="http://www.w3.org/2000/svg">
<g clip-path="url(#clip0_306_2455)">
<path d="M5.56745 97.2734H6.79929L12.1193 109.027H10.6992L9.33289 105.941H2.98007L1.59761 109.027H0.247437L5.56745 97.2734ZM8.81648 104.758L6.16454 98.8057L3.49647 104.758H8.81648Z" fill="black"/>
<path d="M19.2037 100.408H20.4894V101.86C21.0542 101.01 21.8234 100.225 23.2758 100.225C24.6744 100.225 25.5781 100.978 26.0461 101.94C26.6647 100.989 27.5791 100.225 29.0799 100.225C31.0648 100.225 32.2805 101.559 32.2805 103.693V109.027H30.9949V103.994C30.9949 102.328 30.1611 101.392 28.7572 101.392C27.4554 101.392 26.3742 102.36 26.3742 104.059V109.027H25.1047V103.957C25.1047 102.338 24.2548 101.392 22.8885 101.392C21.5222 101.392 20.4894 102.527 20.4894 104.107V109.027H19.2037V100.408V100.408Z" fill="black"/>
<path d="M34.4106 106.527V106.494C34.4106 104.645 35.9114 103.677 38.0954 103.677C39.1981 103.677 39.962 103.828 40.7312 104.043V103.774C40.7312 102.241 39.7952 101.44 38.1815 101.44C37.1648 101.44 36.3633 101.688 35.5618 102.059L35.1799 101.01C36.132 100.575 37.0464 100.279 38.3159 100.279C39.5316 100.279 40.4838 100.612 41.1024 101.231C41.7048 101.833 42.0007 102.666 42.0007 103.763V109.032H40.7312V107.747C40.1287 108.516 39.1443 109.215 37.6274 109.215C36.0136 109.209 34.4106 108.29 34.4106 106.527ZM40.7473 105.86V105.059C40.1126 104.876 39.2788 104.693 38.2299 104.693C36.6269 104.693 35.7124 105.392 35.7124 106.424V106.457C35.7124 107.537 36.7129 108.172 37.8802 108.172C39.4671 108.177 40.7473 107.226 40.7473 105.86Z" fill="black"/>
<path d="M44.7172 100.408H46.0028V102.661C46.6375 101.225 47.8855 100.193 49.5208 100.263V101.645H49.4186C47.5359 101.645 45.9974 102.994 45.9974 105.596V109.032H44.7118V100.408H44.7172Z" fill="black"/>
<path d="M50.5697 104.758V104.726C50.5697 102.29 52.4686 100.225 54.9914 100.225C56.6267 100.225 57.6433 100.908 58.4448 101.758L57.5949 102.656C56.9118 101.94 56.1425 101.354 54.9753 101.354C53.2216 101.354 51.8876 102.838 51.8876 104.688V104.72C51.8876 106.586 53.2539 108.07 55.056 108.07C56.1587 108.07 57.0086 107.521 57.6918 106.785L58.5094 107.554C57.6433 108.521 56.6105 109.22 54.9914 109.22C52.4739 109.226 50.5697 107.177 50.5697 104.758Z" fill="black"/>
<path d="M59.9779 106.527V106.494C59.9779 104.645 61.4787 103.677 63.6627 103.677C64.7654 103.677 65.5292 103.828 66.2985 104.043V103.774C66.2985 102.241 65.3625 101.44 63.7487 101.44C62.732 101.44 61.9306 101.688 61.1291 102.059L60.7471 101.01C61.6992 100.575 62.6137 100.279 63.8832 100.279C65.0989 100.279 66.051 100.612 66.6696 101.231C67.2721 101.833 67.5679 102.666 67.5679 103.763V109.032H66.2985V107.747C65.696 108.516 64.7116 109.215 63.1947 109.215C61.5755 109.209 59.9779 108.29 59.9779 106.527ZM66.3146 105.86V105.059C65.6798 104.876 64.8461 104.693 63.7971 104.693C62.1941 104.693 61.2797 105.392 61.2797 106.424V106.457C61.2797 107.537 62.2802 108.172 63.4475 108.172C65.029 108.177 66.3146 107.226 66.3146 105.86Z" fill="black"/>
<path d="M77.1698 96.854H79.7034L76.4329 109.021H73.8993L77.1698 96.854Z" fill="black"/>
<path d="M81.3387 100.091H83.8723L81.4732 109.027H78.9396L81.3387 100.091ZM84.507 96.1551L86.6426 97.1067L83.9584 99.1068H81.8228L84.507 96.1551Z" fill="black"/>
<path d="M84.5878 105.36C84.5878 102.193 87.0084 99.9238 89.5259 99.9238C90.9244 99.9238 91.7421 100.505 92.3284 101.392L93.528 96.8592H96.0616L92.8072 109.026H90.2736L90.5425 108.059C89.7733 108.774 89.0256 109.193 88.0251 109.193C86.0724 109.193 84.5878 107.774 84.5878 105.36ZM91.7744 103.956C91.7744 102.822 90.9729 102.058 89.854 102.058C88.4877 102.058 87.202 103.392 87.202 105.193C87.202 106.36 87.9336 107.059 89.0686 107.059C90.478 107.059 91.7744 105.655 91.7744 103.956Z" fill="black"/>
<path d="M98.2133 105.44C98.294 106.489 98.9287 107.188 100.263 107.188C100.93 107.188 101.516 106.989 102.248 106.473L103.415 108.043C102.613 108.709 101.495 109.225 99.9776 109.225C97.4118 109.225 95.8411 107.725 95.8411 105.258C95.8411 102.671 97.9443 99.924 101.145 99.924C103.463 99.924 104.797 101.424 104.797 103.408C104.797 104.042 104.631 104.758 104.346 105.44H98.2133ZM98.4446 103.854H102.328C102.377 103.688 102.414 103.489 102.414 103.274C102.414 102.542 101.979 101.956 100.946 101.956C99.7948 101.956 98.8642 102.725 98.4446 103.854Z" fill="black"/>
<path d="M107.616 100.091H110.15L109.665 101.892C110.564 100.575 111.602 99.806 113.071 99.9243L112.355 102.575H112.221C110.537 102.575 109.235 103.543 108.617 105.86L107.767 109.027H105.233L107.616 100.091Z" fill="black"/>
<path d="M122.511 108.107C123.694 108.107 124.528 107.624 125.228 106.892L126.029 107.607C125.163 108.575 124.109 109.226 122.479 109.226C120.112 109.226 118.175 107.408 118.175 104.726C118.175 102.225 119.929 100.225 122.312 100.225C124.862 100.225 126.33 102.258 126.33 104.795C126.33 104.914 126.33 105.048 126.314 105.247H119.472C119.655 107.059 120.989 108.107 122.511 108.107ZM125.028 104.209C124.878 102.645 123.98 101.311 122.274 101.311C120.79 101.311 119.655 102.543 119.472 104.209H125.028Z" fill="black"/>
<path d="M128.579 100.408H129.864V101.86C130.429 101.01 131.198 100.225 132.651 100.225C134.049 100.225 134.953 100.978 135.421 101.94C136.04 100.989 136.954 100.225 138.455 100.225C140.44 100.225 141.656 101.559 141.656 103.693V109.027H140.37V103.994C140.37 102.328 139.536 101.392 138.132 101.392C136.83 101.392 135.749 102.36 135.749 104.059V109.027H134.48V103.957C134.48 102.338 133.63 101.392 132.263 101.392C130.897 101.392 129.864 102.527 129.864 104.107V109.027H128.579V100.408V100.408Z" fill="black"/>
<path d="M153.242 108.107C154.426 108.107 155.26 107.624 155.959 106.892L156.76 107.607C155.894 108.575 154.84 109.226 153.21 109.226C150.843 109.226 148.907 107.408 148.907 104.726C148.907 102.225 150.655 100.225 153.043 100.225C155.593 100.225 157.062 102.258 157.062 104.795C157.062 104.914 157.062 105.048 157.045 105.247H150.208C150.391 107.059 151.725 108.107 153.242 108.107ZM155.76 104.209C155.609 102.645 154.711 101.311 153.006 101.311C151.521 101.311 150.386 102.543 150.203 104.209H155.76Z" fill="black"/>
<path d="M159.31 100.408H160.596V101.908C161.16 100.973 162.064 100.225 163.549 100.225C165.636 100.225 166.852 101.623 166.852 103.677V109.027H165.566V103.994C165.566 102.392 164.7 101.392 163.183 101.392C161.698 101.392 160.596 102.473 160.596 104.091V109.027H159.31V100.408Z" fill="black"/>
<path d="M173.382 108.107C174.565 108.107 175.399 107.624 176.098 106.892L176.9 107.607C176.034 108.575 174.98 109.226 173.35 109.226C170.983 109.226 169.046 107.408 169.046 104.726C169.046 102.225 170.795 100.225 173.183 100.225C175.733 100.225 177.201 102.258 177.201 104.795C177.201 104.914 177.201 105.048 177.185 105.247H170.348C170.531 107.059 171.865 108.107 173.382 108.107ZM175.905 104.209C175.754 102.645 174.856 101.311 173.151 101.311C171.666 101.311 170.531 102.543 170.348 104.209H175.905Z" fill="black"/>
<path d="M179.455 100.408H180.741V102.661C181.375 101.225 182.623 100.193 184.259 100.263V101.645H184.156C182.274 101.645 180.735 102.994 180.735 105.596V109.032H179.45V100.408H179.455Z" fill="black"/>
<path d="M185.754 110.527L186.335 109.527C187.319 110.242 188.422 110.629 189.654 110.629C191.553 110.629 192.79 109.581 192.79 107.559V106.543C192.042 107.543 190.988 108.36 189.407 108.36C187.341 108.36 185.356 106.812 185.356 104.328V104.295C185.356 101.779 187.357 100.225 189.407 100.225C191.026 100.225 192.075 101.026 192.774 101.957V100.408H194.06V107.527C194.06 108.86 193.662 109.876 192.957 110.575C192.188 111.344 191.037 111.726 189.67 111.726C188.239 111.726 186.905 111.328 185.754 110.527ZM192.828 104.306V104.274C192.828 102.505 191.295 101.354 189.659 101.354C188.024 101.354 186.674 102.489 186.674 104.252V104.285C186.674 106.016 188.056 107.22 189.659 107.22C191.295 107.226 192.828 106.043 192.828 104.306Z" fill="black"/>
<path d="M196.964 97.1065H198.433V98.5205H196.964V97.1065ZM197.045 100.408H198.331V109.026H197.045V100.408Z" fill="black"/>
<path d="M200.665 106.527V106.494C200.665 104.645 202.166 103.677 204.35 103.677C205.453 103.677 206.217 103.828 206.986 104.043V103.774C206.986 102.241 206.05 101.44 204.436 101.44C203.419 101.44 202.618 101.688 201.816 102.059L201.435 101.01C202.387 100.575 203.301 100.279 204.571 100.279C205.786 100.279 206.738 100.612 207.357 101.231C207.959 101.833 208.255 102.666 208.255 103.763V109.032H206.986V107.747C206.383 108.516 205.399 109.215 203.882 109.215C202.263 109.209 200.665 108.29 200.665 106.527ZM207.002 105.86V105.059C206.367 104.876 205.533 104.693 204.485 104.693C202.882 104.693 201.967 105.392 201.967 106.424V106.457C201.967 107.537 202.968 108.172 204.135 108.172C205.716 108.177 207.002 107.226 207.002 105.86Z" fill="black"/>
<path d="M215.254 107.924L215.905 107.005C216.841 107.704 217.873 108.107 218.89 108.107C219.923 108.107 220.676 107.575 220.676 106.742V106.709C220.676 105.844 219.659 105.51 218.524 105.193C217.174 104.811 215.673 104.344 215.673 102.758V102.725C215.673 101.241 216.905 100.257 218.61 100.257C219.659 100.257 220.826 100.623 221.714 101.209L221.133 102.177C220.332 101.661 219.417 101.343 218.583 101.343C217.567 101.343 216.916 101.876 216.916 102.596V102.629C216.916 103.446 217.981 103.763 219.132 104.112C220.466 104.51 221.902 105.032 221.902 106.58V106.613C221.902 108.247 220.552 109.199 218.831 109.199C217.588 109.193 216.222 108.709 215.254 107.924Z" fill="black"/>
<path d="M223.742 104.758V104.726C223.742 102.29 225.646 100.225 228.244 100.225C230.832 100.225 232.731 102.258 232.731 104.693V104.726C232.731 107.161 230.81 109.226 228.212 109.226C225.63 109.226 223.742 107.193 223.742 104.758ZM231.418 104.758V104.726C231.418 102.876 230.036 101.36 228.217 101.36C226.351 101.36 225.065 102.876 225.065 104.693V104.726C225.065 106.575 226.432 108.075 228.25 108.075C230.116 108.075 231.418 106.575 231.418 104.758Z" fill="black"/>
<path d="M235.167 96.854H236.453V109.021H235.167V96.854Z" fill="black"/>
<path d="M238.782 106.527V106.494C238.782 104.645 240.283 103.677 242.467 103.677C243.57 103.677 244.334 103.828 245.103 104.043V103.774C245.103 102.241 244.167 101.44 242.553 101.44C241.536 101.44 240.735 101.688 239.933 102.059L239.551 101.01C240.504 100.575 241.418 100.279 242.687 100.279C243.903 100.279 244.855 100.612 245.474 101.231C246.076 101.833 246.372 102.666 246.372 103.763V109.032H245.103V107.747C244.5 108.516 243.516 109.215 241.999 109.215C240.385 109.209 238.782 108.29 238.782 106.527ZM245.124 105.86V105.059C244.49 104.876 243.656 104.693 242.607 104.693C241.004 104.693 240.089 105.392 240.089 106.424V106.457C240.089 107.537 241.09 108.172 242.257 108.172C243.839 108.177 245.124 107.226 245.124 105.86Z" fill="black"/>
<path d="M249.089 100.408H250.374V102.661C251.009 101.225 252.257 100.193 253.892 100.263V101.645H253.79C251.907 101.645 250.369 102.994 250.369 105.596V109.032H249.083V100.408H249.089Z" fill="black"/>
<path d="M254.194 107.274H255.727V109.027H254.194V107.274Z" fill="black"/>
<path d="M0.564819 69.4172C1.03281 84.5254 17.7352 86.7621 28.2838 86.7621C43.5876 86.7621 55.6316 82.4716 55.6316 69.885C55.6316 58.4167 44.9915 56.8306 28.7518 54.4971C16.3366 52.7228 15.1263 52.0723 15.1263 48.0613C15.1263 45.4483 19.0477 42.3729 26.3258 42.3729C30.7098 42.3729 39.3004 43.2116 40.3278 50.5776H53.765C53.0173 34.7273 34.6312 33.609 26.9766 33.609C18.6712 33.609 2.24312 35.4747 2.24312 49.556C2.24312 60.8415 10.2689 62.6104 25.578 64.6643C39.4832 66.5299 41.6295 67.8365 41.6295 71.6592C41.6295 76.3207 34.6312 77.9983 28.1923 77.9983C23.5232 77.9983 14.938 76.8799 14.5668 69.4172H0.564819V69.4172Z" fill="#020203"/>
<path d="M74.3888 60.1856C74.3888 51.6045 79.0579 43.4966 91.5591 43.4966C104.066 43.4966 108.73 51.6099 108.73 60.1856C108.73 68.7666 104.06 76.8745 91.5591 76.8745C79.0525 76.8799 74.3888 68.7666 74.3888 60.1856ZM60.9462 60.1856C60.9462 73.7991 69.4399 86.7621 91.5591 86.7621C113.678 86.7621 122.172 73.7991 122.172 60.1856C122.172 46.572 113.678 33.609 91.5591 33.609C69.4399 33.609 60.9462 46.572 60.9462 60.1856Z" fill="#020203"/>
<path d="M143.264 17.1999H130.386V84.8967H143.264V17.1999Z" fill="#020203"/>
<path d="M206.728 50.2118C206.728 43.776 205.98 33.6143 180.127 33.6143C165.475 33.6143 155.862 37.6252 153.995 50.5828H166.593C167.061 45.0825 171.634 42.3781 180.127 42.3781C187.594 42.3781 194.129 43.776 194.129 49.4645C194.129 53.2872 192.171 53.9378 173.689 55.7121C165.475 56.4594 151.478 57.6692 151.478 71.2827C151.478 80.9821 158.756 86.762 171.639 86.762C186.104 86.762 192.36 82.38 194.877 79.9552C195.248 81.8209 196.184 86.2942 204.581 86.2942C208.965 86.2942 211.208 85.6436 213.726 85.1759V76.1324C212.698 76.3206 210.74 76.412 209.525 76.412C208.686 76.412 206.722 76.3206 206.722 73.6162V50.2118H206.728ZM193.85 65.0351C193.85 75.9442 182.182 78.5573 175.275 78.5573C170.891 78.5573 164.915 77.3475 164.915 70.8203C164.915 66.6266 167.25 64.4813 176.954 63.363C186.098 62.3361 190.111 61.8737 193.844 60.2876V65.0351H193.85Z" fill="#020203"/>
<path d="M2.53897 19.3559H6.52495C7.44479 19.3559 8.42381 19.7054 8.42381 21.0979C8.42381 22.4421 7.69761 22.8077 6.35282 22.8077H2.53897V19.3559ZM0.166748 28.8725H2.53897V24.5712H7.15969C9.70405 24.5712 10.796 22.8184 10.796 21.0925C10.796 19.2752 9.89232 17.5816 7.12742 17.5816H0.166748V28.8725Z" fill="#020203"/>
<path d="M28.4828 29.1898C33.2595 29.1898 35.1261 26.4047 35.1261 23.2271C35.1261 20.0495 33.2595 17.2645 28.4828 17.2645C23.7061 17.2645 21.8395 20.0495 21.8395 23.2271C21.8395 26.4101 23.7061 29.1898 28.4828 29.1898ZM28.4828 27.4209C25.8255 27.4209 24.3085 25.7111 24.3085 23.2325C24.3085 20.7539 25.8255 19.0441 28.4828 19.0441C31.1401 19.0441 32.657 20.7539 32.657 23.2325C32.657 25.7111 31.1401 27.4209 28.4828 27.4209Z" fill="#020203"/>
<path d="M46.8043 28.8725H49.1765V24.4153H53.2109C54.9538 24.4153 55.1743 25.5551 55.1743 27.1681C55.1743 27.9907 55.2873 28.5606 55.4594 28.8779H58.0199C57.5627 28.2595 57.5466 26.996 57.5466 26.4584C57.5466 24.8615 57.2453 23.6894 55.9005 23.4045V23.3722C56.9602 23.0389 57.7671 22.1248 57.7671 20.6516C57.7671 18.8989 56.8311 17.5816 53.9533 17.5816H46.8043V28.8725ZM49.1765 22.6464V19.3559H53.2755C54.5235 19.3559 55.2981 19.8129 55.2981 20.985C55.2981 22.2485 54.588 22.6464 53.2755 22.6464H49.1765Z" fill="#020203"/>
<path d="M72.7804 28.8723H75.1527V19.3558H79.3914V17.5869H68.5416V19.3558H72.7804V28.8723Z" fill="#020203"/>
<path d="M93.6947 24.3024L95.6581 19.5441L97.5892 24.3024H93.6947ZM89.2461 28.8725H91.8066L92.9793 26.0713H98.2939L99.4827 28.8725H102.124L97.0943 17.5816H94.281L89.2461 28.8725Z" fill="#020203"/>
<path d="M113.135 28.8723H122.371V27.0067H115.507V17.5869H113.135V28.8723Z" fill="#020203"/>
<path fill-rule="evenodd" clip-rule="evenodd" d="M263.252 33.6628H275.409C275.409 33.6628 261.778 57.2446 260.509 59.3952C254.5 56.594 249.53 51.9271 246.351 46.1473C246.743 46.1204 247.131 46.1096 247.513 46.1096C249.75 46.1096 252.176 46.201 255.727 47.3194V34.636C254.048 34.3564 252.553 34.1682 250.595 34.1682C247.609 34.1682 245.038 34.6521 242.811 35.4801C242.612 34.066 242.51 32.6197 242.51 31.1519C242.51 13.9522 256.458 0.00524902 273.672 0.00524902C276.544 0.00524902 279.368 0.473014 281.966 1.258C281.52 2.11826 263.252 33.6628 263.252 33.6628Z" fill="#F59A1B"/>
<path fill-rule="evenodd" clip-rule="evenodd" d="M286.738 2.99493C297.367 7.95754 304.736 18.7376 304.736 31.2436C304.736 48.4487 290.783 62.3956 273.575 62.3956C270.702 62.3956 267.878 61.9279 265.28 61.1429C265.732 60.288 283.994 28.7327 283.994 28.7327H271.837C271.837 28.7327 285.468 5.14558 286.738 2.99493Z" fill="#F59A1B"/>
<path d="M218.857 84.8966H231.735V61.0245C231.735 49.5562 240.977 46.1044 247.507 46.1044C249.745 46.1044 252.176 46.1958 255.721 47.3141V34.6307C254.043 34.3512 252.547 34.163 250.589 34.163C240.697 34.163 235.377 39.4804 231.923 45.0721H231.735V35.4695H218.857V84.8966V84.8966Z" fill="#020203"/>
</g>
<defs>
<clipPath id="clip0_306_2455">
<rect width="305" height="111.833" fill="white"/>
</clipPath>
</defs>
</svg>
